<svg width="24.957275" height="17.639984" viewBox="0 0 24.9573 17.64" fill="none" xmlns="http://www.w3.org/2000/svg" xmlns:xlink="http://www.w3.org/1999/xlink">
	<desc>
			Created with Pixso.
	</desc>
	<defs/>
	<path id="24" d="M11.68 17.62L4.88e-5 17.62L0.01 15.39L7.53 8.65C8.14 8.1 8.55 7.59 8.77 7.11C8.99 6.62 9.1 6.14 9.1 5.65Q9.1 4.78 8.75 4.09Q8.54 3.67 8.2 3.32Q7.85 2.96 7.43 2.73Q6.76 2.38 5.91 2.38C5.27 2.38 4.7 2.54 4.21 2.84Q3.81 3.07 3.51 3.39Q3.23 3.68 3.03 4.03Q2.88 4.3 2.78 4.58Q2.62 5.08 2.62 5.64L0.06 5.64Q0.06 4.05 0.73 2.84Q0.77 2.77 0.81 2.7C1.32 1.85 2.01 1.19 2.9 0.71C3.8 0.23 4.82 -1.91e-6 5.96 -1.91e-6C7.05 -1.91e-6 8.02 0.24 8.89 0.74C9.75 1.23 10.43 1.9 10.93 2.76C11.43 3.61 11.68 4.59 11.68 5.68Q11.68 6.86 11.37 7.7C11.16 8.25 10.85 8.76 10.44 9.24C10.02 9.71 9.5 10.22 8.88 10.77L3.87 15.24L11.68 15.24L11.68 17.62ZM23.24 17.64L20.69 17.64L20.69 14.62L12.89 14.62L12.89 12.25L18.51 0.35L21.38 0.35L15.76 12.25L20.69 12.25L20.69 7.57L23.24 7.57L23.24 12.25L24.95 12.25L24.95 14.62L23.24 14.62L23.24 17.64Z" fill="#FFFFFF" fill-opacity="1.000000" fill-rule="evenodd"/>
</svg>
