<svg width="28.003906" height="13.321289" viewBox="0 0 28.0039 13.3213" fill="none" xmlns="http://www.w3.org/2000/svg" xmlns:xlink="http://www.w3.org/1999/xlink">
	<desc>
			Created with Pixso.
	</desc>
	<defs/>
	<path id="Arrow" d="M1.02 7.64L1 7.66C0.43 7.66 0 7.22 0 6.66C0 6.1 0.43 5.66 1 5.66L1.02 5.68L1.02 7.64ZM25.58 6.66L20.63 1.71C20.24 1.31 20.24 0.69 20.63 0.29C21.03 -0.1 21.65 -0.1 22.05 0.29L27.7 5.95C28.1 6.34 28.1 6.97 27.7 7.36L22.05 13.02C21.65 13.42 21.03 13.42 20.63 13.02C20.24 12.62 20.24 12 20.63 11.61L25.58 6.66Z" fill="#1E1B1B" fill-opacity="1.000000" fill-rule="nonzero"/>
	<path id="Arrow" d="M24.58 5.66L20.63 1.71C20.24 1.31 20.24 0.69 20.63 0.29C21.03 -0.1 21.65 -0.1 22.05 0.29L27.7 5.95C28.1 6.34 28.1 6.97 27.7 7.36L22.05 13.02C21.65 13.42 21.03 13.42 20.63 13.02C20.24 12.62 20.24 12 20.63 11.61L24.58 7.66L1 7.66C0.43 7.66 0 7.22 0 6.66C0 6.1 0.43 5.66 1 5.66L24.58 5.66Z" fill="#F2F2F2" fill-opacity="1.000000" fill-rule="evenodd"/>
</svg>
