<svg width="14.515625" height="11.519989" viewBox="0 0 14.5156 11.52" fill="none" xmlns="http://www.w3.org/2000/svg" xmlns:xlink="http://www.w3.org/1999/xlink">
	<desc>
			Created with Pixso.
	</desc>
	<defs/>
	<path id="hr" d="M1.69 11.52L-6.05e-5 11.52L-6.05e-5 -1.91e-6L1.49 -1.91e-6L1.49 3.91C1.81 3.51 2.2 3.2 2.68 2.98C3.17 2.76 3.72 2.64 4.35 2.64Q5.24 2.64 5.85 2.93C6.26 3.12 6.58 3.38 6.83 3.69C7.09 4 7.29 4.34 7.42 4.71C7.55 5.08 7.64 5.44 7.69 5.79C7.74 6.14 7.76 6.45 7.76 6.72L7.76 11.52L6.07 11.52L6.07 7.27C6.07 6.93 6.04 6.59 5.98 6.24C5.93 5.88 5.82 5.55 5.67 5.24C5.51 4.94 5.29 4.69 5 4.51C4.71 4.32 4.34 4.23 3.88 4.23Q3.44 4.23 3.06 4.37Q2.92 4.43 2.79 4.5C2.46 4.68 2.19 4.98 1.99 5.39C1.79 5.79 1.69 6.34 1.69 7.02L1.69 11.52ZM11.53 11.52L9.85 11.52L9.85 2.88L11.33 2.88L11.33 4.25C11.55 3.87 11.81 3.58 12.13 3.36C12.46 3.12 12.84 2.96 13.27 2.88C13.71 2.8 14.12 2.8 14.51 2.88L14.51 4.44C14.23 4.37 13.92 4.35 13.57 4.38Q13.28 4.41 13.02 4.51Q12.81 4.58 12.62 4.71C12.22 4.97 11.93 5.32 11.77 5.75C11.61 6.18 11.53 6.65 11.53 7.16L11.53 11.52Z" fill="#FFFFFF" fill-opacity="1.000000" fill-rule="evenodd"/>
</svg>
