<svg xmlns="http://www.w3.org/2000/svg" viewBox="0 0 62 62" height="62.000000" width="62.000000"><g xmlns="http://www.w3.org/2000/svg" transform="matrix(-1 0 0 -1 62 62)"><desc>			Created with Pixso.	</desc><defs><filter id="filter_482_1324_dd" x="0.000000" y="0.000000" width="62.000000" height="62.000000" filterUnits="userSpaceOnUse" color-interpolation-filters="sRGB"><feFlood flood-opacity="0" result="BackgroundImageFix" /><feBlend mode="normal" in="SourceGraphic" in2="BackgroundImageFix" result="shape" /><feColorMatrix in="SourceAlpha" type="matrix" values="0 0 0 0 0 0 0 0 0 0 0 0 0 0 0 0 0 0 127 0" result="hardAlpha" /><feOffset dx="0" dy="4" /><feGaussianBlur stdDeviation="1.33333" /><feComposite in2="hardAlpha" operator="arithmetic" k2="-1" k3="1" /><feColorMatrix type="matrix" values="0 0 0 0 0 0 0 0 0 0 0 0 0 0 0 0 0 0 0.25 0" /><feBlend mode="normal" in2="shape" result="effect_innerShadow_1" /></filter></defs><g filter="url(#filter_482_1324_dd)"><circle id="Circle" cx="31.000000" cy="31.000000" r="31.000000" fill="#1E1B1B" fill-opacity="1.000000" /></g><path id="Arrow" d="M18.02 32.98L18 33C17.43 33 17 32.56 17 32C17 31.43 17.43 31 18 31L18.02 31.02L18.02 32.98ZM42.58 32L37.63 27.05C37.24 26.65 37.24 26.03 37.63 25.63C38.03 25.24 38.65 25.24 39.05 25.63L44.7 31.29C45.1 31.68 45.1 32.31 44.7 32.7L39.05 38.36C38.65 38.75 38.03 38.75 37.63 38.36C37.24 37.96 37.24 37.34 37.63 36.94L42.58 32Z" fill="#1E1B1B" fill-opacity="1.000000" fill-rule="nonzero" /><path id="Arrow" d="M41.58 31L37.63 27.05C37.24 26.65 37.24 26.03 37.63 25.63C38.03 25.24 38.65 25.24 39.05 25.63L44.7 31.29C45.1 31.68 45.1 32.31 44.7 32.7L39.05 38.36C38.65 38.75 38.03 38.75 37.63 38.36C37.24 37.96 37.24 37.34 37.63 36.94L41.58 33L18 33C17.43 33 17 32.56 17 32C17 31.43 17.43 31 18 31L41.58 31Z" fill="#F2F2F2" fill-opacity="1.000000" fill-rule="evenodd" /></g></svg>