<svg width="586.000000" height="362.000000" viewBox="0 0 586 362" fill="none" xmlns="http://www.w3.org/2000/svg" xmlns:xlink="http://www.w3.org/1999/xlink">
	<desc>
			Created with Pixso.
	</desc>
	<defs>
		<filter id="filter_482_1634_dd" x="0.000000" y="0.000000" width="586.000000" height="362.000000" filterUnits="userSpaceOnUse" color-interpolation-filters="sRGB">
			<feFlood flood-opacity="0" result="BackgroundImageFix"/>
			<feColorMatrix in="SourceAlpha" type="matrix" values="0 0 0 0 0 0 0 0 0 0 0 0 0 0 0 0 0 0 127 0" result="hardAlpha"/>
			<feOffset dx="0" dy="28"/>
			<feGaussianBlur stdDeviation="39.3333"/>
			<feComposite in2="hardAlpha" operator="out" k2="-1" k3="1"/>
			<feColorMatrix type="matrix" values="0 0 0 0 0.42745 0 0 0 0 0.42353 0 0 0 0 0.45098 0 0 0 0.12 0"/>
			<feBlend mode="normal" in2="BackgroundImageFix" result="effect_dropShadow_1"/>
			<feBlend mode="normal" in="SourceGraphic" in2="effect_dropShadow_1" result="shape"/>
		</filter>
	</defs>
	<g filter="url(#filter_482_1634_dd)">
		<rect id="BG" x="130.000000" y="102.000000" rx="51.000000" width="326.000000" height="102.000000" fill="#FFFFFF" fill-opacity="1.000000"/>
		<rect id="BG" x="124.000000" y="96.000000" rx="57.000000" width="338.000000" height="114.000000" stroke="#E1E1E1" stroke-opacity="0.430000" stroke-width="12.000000"/>
	</g>
	<path id="Star 1" d="M254.36 139.82L252.07 144.03C251.64 144.82 250.87 145.37 249.99 145.54L245.28 146.42C242.95 146.86 242.02 149.7 243.66 151.43L246.94 154.91C247.56 155.56 247.86 156.46 247.74 157.36L247.12 162.1C246.82 164.46 249.24 166.22 251.38 165.2L255.71 163.15C256.52 162.76 257.47 162.76 258.28 163.15L262.61 165.2C264.75 166.22 267.17 164.46 266.87 162.1L266.25 157.36C266.14 156.46 266.43 155.56 267.05 154.91L270.34 151.43C271.97 149.7 271.04 146.86 268.71 146.42L264 145.54C263.12 145.37 262.35 144.82 261.92 144.03L259.63 139.82C258.49 137.74 255.5 137.74 254.36 139.82Z" fill="#FFB648" fill-opacity="1.000000" fill-rule="evenodd"/>
	<path id="Star 2" d="M292.36 139.82L290.07 144.03C289.64 144.82 288.87 145.37 287.99 145.54L283.28 146.42C280.95 146.86 280.02 149.7 281.66 151.43L284.94 154.91C285.56 155.56 285.85 156.46 285.74 157.36L285.12 162.1C284.82 164.46 287.24 166.22 289.38 165.2L293.71 163.15C294.52 162.76 295.47 162.76 296.28 163.15L300.61 165.2C302.75 166.22 305.17 164.46 304.87 162.1L304.25 157.36C304.14 156.46 304.43 155.56 305.05 154.91L308.34 151.43C309.97 149.7 309.04 146.86 306.71 146.42L302 145.54C301.12 145.37 300.35 144.82 299.92 144.03L297.63 139.82C296.49 137.74 293.5 137.74 292.36 139.82Z" fill="#FFB648" fill-opacity="1.000000" fill-rule="evenodd"/>
	<path id="Star 3" d="M329.36 139.82L327.07 144.03C326.64 144.82 325.87 145.37 324.99 145.54L320.28 146.42C317.95 146.86 317.02 149.7 318.66 151.43L321.94 154.91C322.56 155.56 322.85 156.46 322.74 157.36L322.12 162.1C321.82 164.46 324.24 166.22 326.38 165.2L330.71 163.15C331.52 162.76 332.47 162.76 333.28 163.15L337.61 165.2C339.75 166.22 342.17 164.46 341.87 162.1L341.25 157.36C341.14 156.46 341.43 155.56 342.05 154.91L345.34 151.43C346.97 149.7 346.04 146.86 343.71 146.42L339 145.54C338.12 145.37 337.35 144.82 336.92 144.03L334.63 139.82C333.49 137.74 330.5 137.74 329.36 139.82Z" fill="#FFB648" fill-opacity="1.000000" fill-rule="evenodd"/>
	<path id="Star 4" d="M367.36 139.82L365.07 144.03C364.64 144.82 363.87 145.37 362.99 145.54L358.28 146.42C355.95 146.86 355.02 149.7 356.66 151.43L359.94 154.91C360.56 155.56 360.86 156.46 360.74 157.36L360.12 162.1C359.82 164.46 362.24 166.22 364.38 165.2L368.71 163.15C369.52 162.76 370.47 162.76 371.28 163.15L375.61 165.2C377.75 166.22 380.17 164.46 379.87 162.1L379.25 157.36C379.14 156.46 379.43 155.56 380.05 154.91L383.34 151.43C384.97 149.7 384.04 146.86 381.71 146.42L377 145.54C376.12 145.37 375.35 144.82 374.92 144.03L372.63 139.82C371.49 137.74 368.5 137.74 367.36 139.82Z" fill="#FFB648" fill-opacity="1.000000" fill-rule="evenodd"/>
	<path id="Star 5" d="M403.36 139.82L401.07 144.03C400.64 144.82 399.87 145.37 398.99 145.54L394.28 146.42C391.95 146.86 391.02 149.7 392.66 151.43L395.94 154.91C396.56 155.56 396.86 156.46 396.74 157.36L396.12 162.1C395.82 164.46 398.24 166.22 400.38 165.2L404.71 163.15C405.52 162.76 406.47 162.76 407.28 163.15L411.61 165.2C413.75 166.22 416.17 164.46 415.87 162.1L415.25 157.36C415.14 156.46 415.43 155.56 416.05 154.91L419.34 151.43C420.97 149.7 420.04 146.86 417.71 146.42L413 145.54C412.12 145.37 411.35 144.82 410.92 144.03L408.63 139.82C407.49 137.74 404.5 137.74 403.36 139.82Z" fill="#D7D1C7" fill-opacity="1.000000" fill-rule="evenodd"/>
	<mask id="mask482_1642" mask-type="alpha" maskUnits="userSpaceOnUse" x="388.000000" y="135.000000" width="36.000000" height="36.000000">
		<path id="Star 5" d="M403.36 139.82L401.07 144.03C400.64 144.82 399.87 145.37 398.99 145.54L394.28 146.42C391.95 146.86 391.02 149.7 392.66 151.43L395.94 154.91C396.56 155.56 396.86 156.46 396.74 157.36L396.12 162.1C395.82 164.46 398.24 166.22 400.38 165.2L404.71 163.15C405.52 162.76 406.47 162.76 407.28 163.15L411.61 165.2C413.75 166.22 416.17 164.46 415.87 162.1L415.25 157.36C415.14 156.46 415.43 155.56 416.05 154.91L419.34 151.43C420.97 149.7 420.04 146.86 417.71 146.42L413 145.54C412.12 145.37 411.35 144.82 410.92 144.03L408.63 139.82C407.49 137.74 404.5 137.74 403.36 139.82Z" fill="#D7D1C7" fill-opacity="1.000000" fill-rule="evenodd"/>
	</mask>
	<g mask="url(#mask482_1642)">
		<rect id="Rectangle 1308" x="405.000000" y="173.000000" width="16.000004" height="43.000000" transform="rotate(-180 405.000000 173.000000)" fill="#FFB648" fill-opacity="1.000000"/>
	</g>
	<g opacity="0.700000">
		<path id="Rating" d="M197.53 163.96L196.1 163.96L196.1 162.48L197.53 162.48L197.53 163.96ZM171.54 174.12L170.12 174.12L170.12 162.6L174.67 162.6C174.78 162.6 174.91 162.61 175.06 162.62C175.21 162.62 175.37 162.64 175.52 162.67C176.45 162.81 177.16 163.21 177.64 163.88Q177.79 164.08 177.91 164.31Q178.36 165.15 178.36 166.24Q178.36 167.28 177.94 168.12Q177.9 168.19 177.86 168.27Q177.66 168.62 177.38 168.89Q176.97 169.31 176.38 169.56L178.6 174.12L176.97 174.12L174.91 169.87L171.54 169.87L171.54 174.12ZM194.19 172.9L194.19 174.12C193.68 174.22 193.17 174.26 192.67 174.24C192.17 174.23 191.73 174.13 191.34 173.95C190.95 173.76 190.66 173.47 190.45 173.08C190.28 172.75 190.19 172.41 190.17 172.06Q190.16 171.53 190.16 170.86L190.16 166.66L188.41 166.66L188.41 165.48L190.16 165.48L190.16 163.08L191.58 163.08L191.58 165.48L194.19 165.48L194.19 166.66L191.58 166.66L191.58 170.8Q191.58 171.33 191.59 171.71C191.6 171.95 191.66 172.17 191.76 172.35C191.95 172.69 192.25 172.89 192.67 172.95C193.09 173.01 193.6 172.99 194.19 172.9ZM171.54 163.96L171.54 168.52L174.62 168.52C174.72 168.52 174.84 168.51 174.96 168.5C175.1 168.49 175.22 168.47 175.34 168.44C175.89 168.32 176.29 168.04 176.54 167.61C176.78 167.17 176.91 166.72 176.91 166.24C176.91 165.76 176.78 165.3 176.54 164.87C176.29 164.43 175.89 164.15 175.34 164.03C175.22 164 175.1 163.98 174.96 163.97C174.84 163.96 174.72 163.96 174.62 163.96L171.54 163.96ZM186.02 172.78C185.33 173.84 184.26 174.36 182.82 174.36Q181.85 174.36 181.2 174.01Q180.66 173.71 180.34 173.27Q180.27 173.17 180.21 173.07C179.99 172.68 179.89 172.25 179.89 171.79Q179.89 170.91 180.3 170.33Q180.37 170.24 180.45 170.16Q181.02 169.54 182.01 169.25C182.55 169.11 183.17 168.99 183.87 168.89C184.57 168.79 185.25 168.69 185.89 168.6C185.87 167.92 185.7 167.41 185.37 167.08C185.04 166.74 184.5 166.57 183.76 166.57C183.23 166.57 182.78 166.69 182.38 166.93C181.99 167.17 181.71 167.56 181.56 168.08L180.21 167.68C180.41 166.92 180.81 166.32 181.41 165.89Q182.31 165.24 183.77 165.24C184.55 165.24 185.22 165.38 185.79 165.67C186.35 165.94 186.76 166.37 187.01 166.93C187.13 167.2 187.21 167.49 187.24 167.8C187.27 168.11 187.29 168.44 187.29 168.78L187.29 174.12L186.02 174.12L186.02 172.78ZM214.42 174.09C214 174.27 213.53 174.36 212.99 174.36C212.19 174.36 211.49 174.16 210.91 173.76C210.34 173.36 209.89 172.81 209.58 172.12Q209.12 171.09 209.12 169.8Q209.12 168.5 209.58 167.47C209.9 166.78 210.34 166.24 210.92 165.84C211.5 165.44 212.18 165.24 212.98 165.24C213.57 165.24 214.09 165.35 214.54 165.56C215 165.78 215.38 166.07 215.7 166.45L215.7 165.48L216.96 165.48L216.96 174.18C216.96 174.42 216.95 174.65 216.94 174.86C216.93 175.08 216.9 175.29 216.86 175.51C216.69 176.42 216.28 177.1 215.62 177.54C214.97 177.98 214.13 178.2 213.1 178.2C212.42 178.2 211.77 178.05 211.15 177.74C210.53 177.43 210.04 176.95 209.68 176.31L210.98 175.62C211.2 176.04 211.5 176.35 211.89 176.54C212.28 176.73 212.68 176.83 213.1 176.83Q214.23 176.83 214.83 176.27Q215.54 175.61 215.53 174.16L215.53 173.33C215.22 173.66 214.85 173.91 214.42 174.09ZM201.36 174.12L199.92 174.12L199.92 165.48L201.2 165.48L201.2 166.6C201.86 165.7 202.82 165.26 204.08 165.26Q205.13 165.26 205.79 165.66C206.24 165.93 206.59 166.27 206.84 166.69C207.1 167.11 207.27 167.55 207.37 168.03Q207.52 168.73 207.52 169.35L207.52 174.12L206.08 174.12L206.08 169.8C206.08 169.25 206.01 168.74 205.87 168.25C205.74 167.77 205.5 167.37 205.16 167.07Q205.16 167.06 205.15 167.06Q204.64 166.61 203.74 166.61Q203.06 166.61 202.54 166.9Q202.25 167.07 202.01 167.34Q201.36 168.07 201.36 169.57L201.36 174.12ZM197.53 174.12L196.1 174.12L196.1 165.48L197.53 165.48L197.53 174.12ZM211.75 172.63C212.13 172.92 212.6 173.06 213.17 173.06C214.04 173.06 214.68 172.75 215.09 172.14C215.49 171.53 215.7 170.74 215.7 169.8Q215.7 168.36 215.08 167.46C214.67 166.85 214.05 166.55 213.21 166.55C212.62 166.55 212.14 166.69 211.75 166.98C211.37 167.27 211.09 167.66 210.9 168.15C210.72 168.64 210.63 169.19 210.63 169.8C210.63 170.41 210.73 170.96 210.91 171.46C211.1 171.95 211.38 172.34 211.75 172.63ZM181.71 172.75C181.98 173.03 182.42 173.17 183.04 173.17Q184.13 173.17 184.8 172.64Q184.84 172.61 184.88 172.58C185.34 172.18 185.62 171.71 185.73 171.18C185.78 170.97 185.82 170.74 185.84 170.49C185.86 170.24 185.87 170.02 185.87 169.82C185.26 169.9 184.68 169.98 184.12 170.06C183.56 170.14 183.07 170.24 182.65 170.36C182.29 170.47 181.97 170.63 181.7 170.85C181.43 171.06 181.3 171.37 181.3 171.78C181.3 172.14 181.44 172.46 181.71 172.75Z" fill="#000000" fill-opacity="1.000000" fill-rule="evenodd"/>
	</g>
	<path id="4.5/5" d="M179.54 153.19L177 153.19L177 150.17L169.2 150.17L169.2 147.8L174.81 135.91L177.68 135.91L172.06 147.8L177 147.8L177 143.12L179.54 143.12L179.54 147.8L181.26 147.8L181.26 150.17L179.54 150.17L179.54 153.19ZM196.16 153.24Q195.24 153.55 194.22 153.55Q193.18 153.55 192.26 153.22Q192 153.13 191.75 153.01Q191.14 152.71 190.63 152.31Q190.17 151.95 189.79 151.5C189.25 150.85 188.85 150.1 188.61 149.26L191.03 148.62C191.23 149.38 191.64 150 192.26 150.45C192.89 150.9 193.57 151.12 194.29 151.12C194.92 151.12 195.49 150.97 196.01 150.67C196.52 150.36 196.93 149.96 197.23 149.44C197.53 148.93 197.69 148.37 197.69 147.75C197.69 147.12 197.53 146.55 197.22 146.03C196.91 145.52 196.5 145.12 195.98 144.82C195.47 144.52 194.91 144.37 194.29 144.37Q193.23 144.37 192.5 144.8C192.01 145.08 191.63 145.4 191.36 145.76L189.18 144.99L189.71 135.91L199.03 135.91L199.03 138.27L191.95 138.27L191.66 143.02C192.09 142.72 192.55 142.49 193.07 142.33C193.59 142.17 194.1 142.09 194.61 142.09Q196 142.09 197.12 142.63Q197.31 142.72 197.49 142.83C198.34 143.32 199.01 143.99 199.49 144.85C199.97 145.7 200.22 146.67 200.22 147.75Q200.22 148.72 199.92 149.58Q199.72 150.15 199.39 150.68C198.84 151.55 198.11 152.25 197.19 152.77Q196.69 153.06 196.16 153.24ZM209.27 135.91L206.74 135.91L202.13 153.19L204.66 153.19L209.27 135.91ZM218.74 153.24Q217.82 153.55 216.8 153.55C215.91 153.55 215.09 153.37 214.33 153.01C213.57 152.64 212.92 152.14 212.37 151.5C211.83 150.85 211.44 150.1 211.2 149.26L213.61 148.62C213.81 149.38 214.22 150 214.85 150.45C215.48 150.9 216.15 151.12 216.87 151.12C217.51 151.12 218.08 150.97 218.59 150.67C219.1 150.36 219.51 149.96 219.81 149.44C220.12 148.93 220.27 148.37 220.27 147.75C220.27 147.12 220.11 146.55 219.8 146.03C219.5 145.52 219.09 145.12 218.57 144.82C218.05 144.52 217.49 144.37 216.87 144.37C216.17 144.37 215.57 144.51 215.09 144.8C214.6 145.08 214.22 145.4 213.95 145.76L211.76 144.99L212.29 135.91L221.61 135.91L221.61 138.27L214.53 138.27L214.25 143.02C214.67 142.72 215.14 142.49 215.65 142.33C216.17 142.17 216.69 142.09 217.2 142.09C218.28 142.09 219.24 142.34 220.08 142.83C220.93 143.32 221.59 143.99 222.07 144.85C222.56 145.7 222.8 146.67 222.8 147.75C222.8 148.82 222.53 149.8 221.97 150.68C221.42 151.55 220.69 152.25 219.78 152.77Q219.28 153.06 218.74 153.24ZM186.03 153.19L183.38 153.19L183.38 150.53L186.03 150.53L186.03 153.19Z" fill="#000000" fill-opacity="1.000000" fill-rule="evenodd"/>
</svg>
