<svg width="28.325684" height="27.232788" viewBox="0 0 28.3257 27.2328" fill="none" xmlns="http://www.w3.org/2000/svg" xmlns:xlink="http://www.w3.org/1999/xlink">
	<desc>
			Created with Pixso.
	</desc>
	<defs/>
	<path id="Star 5" d="M11.52 1.56L9.23 5.76C8.8 6.55 8.04 7.11 7.15 7.27L2.45 8.15C0.11 8.59 -0.81 11.44 0.82 13.16L4.11 16.64C4.73 17.3 5.02 18.2 4.9 19.09L4.29 23.84C3.98 26.19 6.4 27.95 8.55 26.93L12.87 24.88C13.69 24.49 14.63 24.49 15.44 24.88L19.77 26.93C21.91 27.95 24.34 26.19 24.03 23.84L23.41 19.09C23.3 18.2 23.59 17.3 24.21 16.64L27.5 13.16C29.13 11.44 28.2 8.59 25.87 8.15L21.17 7.27C20.28 7.11 19.52 6.55 19.08 5.76L16.79 1.56C15.65 -0.53 12.66 -0.53 11.52 1.56Z" fill="#D7D1C7" fill-opacity="1.000000" fill-rule="evenodd"/>
</svg>
