<svg width="201.973877" height="15.839844" viewBox="0 0 201.974 15.8398" fill="none" xmlns="http://www.w3.org/2000/svg" xmlns:xlink="http://www.w3.org/1999/xlink">
	<desc>
			Created with Pixso.
	</desc>
	<defs/>
	<path id="@ Copyright Finsweet 2021" d="M25.7 10.99C24.84 11.66 23.74 11.99 22.41 11.99C21.26 11.99 20.28 11.74 19.46 11.23C18.65 10.73 18.03 10.03 17.6 9.13C17.17 8.23 16.96 7.18 16.96 5.99Q16.96 4.21 17.6 2.87C18.03 1.97 18.65 1.26 19.46 0.75C20.28 0.25 21.26 -0.01 22.41 -0.01C23.74 -0.01 24.84 0.33 25.7 1Q26.11 1.31 26.44 1.69Q27.18 2.54 27.53 3.71L25.83 4.17C25.6 3.37 25.2 2.73 24.63 2.27Q24.59 2.24 24.55 2.21Q23.71 1.59 22.41 1.59Q21.18 1.59 20.37 2.14C19.82 2.51 19.42 3.02 19.14 3.68Q18.74 4.67 18.73 5.99Q18.72 7.31 19.13 8.31C19.41 8.97 19.82 9.48 20.36 9.85Q21.18 10.4 22.41 10.4Q23.71 10.4 24.55 9.78Q24.59 9.75 24.63 9.71C25.2 9.26 25.6 8.62 25.83 7.82L27.53 8.27C27.19 9.41 26.58 10.31 25.7 10.99ZM176.68 11.75L168.89 11.75L168.9 10.26L173.91 5.76C174.32 5.4 174.59 5.06 174.74 4.74C174.89 4.41 174.96 4.09 174.96 3.76Q174.96 3.18 174.73 2.72Q174.59 2.45 174.36 2.21C173.96 1.79 173.45 1.59 172.83 1.59C172.41 1.59 172.03 1.69 171.7 1.89C171.37 2.09 171.11 2.35 170.91 2.68C170.73 3.01 170.64 3.37 170.64 3.75L168.93 3.75Q168.93 2.7 169.38 1.89Q169.41 1.84 169.43 1.79C169.77 1.23 170.23 0.79 170.83 0.47C171.42 0.15 172.1 -0.01 172.87 -0.01C173.59 -0.01 174.24 0.16 174.82 0.49C175.39 0.82 175.85 1.26 176.18 1.83C176.51 2.41 176.68 3.06 176.68 3.79C176.68 4.31 176.61 4.76 176.47 5.13C176.34 5.5 176.13 5.84 175.85 6.15Q175.43 6.63 174.81 7.18L171.47 10.15L176.68 10.15L176.68 11.75ZM184.7 11.48C184.09 11.82 183.4 11.99 182.62 11.99C181.84 11.99 181.15 11.82 180.54 11.48C179.93 11.14 179.46 10.66 179.11 10.06C178.77 9.45 178.6 8.76 178.6 7.98L178.6 4.01Q178.6 2.89 179.06 2.02Q179.09 1.97 179.11 1.93C179.46 1.33 179.93 0.86 180.54 0.51C181.15 0.17 181.84 -0.01 182.62 -0.01C183.4 -0.01 184.09 0.17 184.7 0.51Q185.15 0.77 185.5 1.12Q185.86 1.48 186.11 1.93C186.46 2.53 186.63 3.23 186.63 4.01L186.63 7.98C186.63 8.76 186.46 9.45 186.11 10.06C185.77 10.66 185.3 11.14 184.7 11.48ZM196.34 11.75L188.55 11.75L188.55 10.26L193.57 5.76C193.98 5.4 194.25 5.06 194.39 4.74C194.54 4.41 194.62 4.09 194.62 3.76Q194.62 3.18 194.39 2.72Q194.24 2.45 194.02 2.21C193.62 1.79 193.11 1.59 192.49 1.59C192.06 1.59 191.69 1.69 191.35 1.89C191.02 2.09 190.76 2.35 190.57 2.68C190.38 3.01 190.29 3.37 190.3 3.75L188.59 3.75Q188.59 2.7 189.04 1.89Q189.06 1.84 189.09 1.79C189.43 1.23 189.89 0.79 190.48 0.47C191.08 0.15 191.76 -0.01 192.52 -0.01C193.25 -0.01 193.9 0.16 194.47 0.49C195.05 0.82 195.5 1.26 195.83 1.83C196.17 2.41 196.34 3.06 196.34 3.79C196.34 4.31 196.27 4.76 196.13 5.13C195.99 5.5 195.78 5.84 195.51 6.15Q195.09 6.63 194.47 7.18L191.13 10.15L196.34 10.15L196.34 11.75ZM65.26 1.7L63.59 1.7L63.59 0.07L65.26 0.07L65.26 1.7ZM107.31 1.7L105.64 1.7L105.64 0.07L107.31 0.07L107.31 1.7ZM79.09 11.75L77.39 11.75L77.39 0.23L78.89 0.23L78.89 4.15C79.2 3.75 79.6 3.44 80.08 3.22C80.56 2.99 81.12 2.88 81.74 2.88Q82.64 2.88 83.25 3.17C83.65 3.36 83.98 3.62 84.23 3.93C84.49 4.24 84.68 4.58 84.81 4.95C84.95 5.31 85.04 5.67 85.09 6.03C85.13 6.38 85.16 6.69 85.16 6.95L85.16 11.75L83.46 11.75L83.46 7.51C83.46 7.17 83.43 6.83 83.37 6.47C83.32 6.12 83.22 5.79 83.06 5.48C82.91 5.18 82.69 4.93 82.4 4.75C82.11 4.56 81.74 4.47 81.28 4.47Q80.84 4.47 80.45 4.61Q80.31 4.67 80.18 4.74C79.85 4.92 79.58 5.22 79.38 5.63C79.18 6.03 79.09 6.58 79.09 7.26L79.09 11.75ZM98.88 11.75L97.21 11.75L97.21 0.23L104.03 0.23L104.03 1.91L98.88 1.91L98.88 5.15L103.07 5.15L103.07 6.83L98.88 6.83L98.88 11.75ZM201.97 11.75L200.27 11.75L200.27 2.07L198.1 3.39L198.1 1.53L200.27 0.23L201.97 0.23L201.97 11.75ZM92.19 10.34L92.19 11.75C91.65 11.86 91.12 11.91 90.59 11.89C90.07 11.87 89.6 11.77 89.19 11.59C88.78 11.4 88.47 11.11 88.26 10.71C88.07 10.35 87.97 9.99 87.95 9.62Q87.94 9.06 87.94 8.35L87.94 4.46L86.28 4.46L86.28 3.11L87.94 3.11L87.94 0.71L89.62 0.71L89.62 3.11L92.19 3.11L92.19 4.46L89.62 4.46L89.62 8.27C89.62 8.62 89.62 8.92 89.63 9.18C89.64 9.43 89.69 9.65 89.79 9.83Q89.9 10.01 90.05 10.13Q90.31 10.34 90.71 10.39C91.13 10.44 91.62 10.42 92.19 10.34ZM164.19 10.34L164.19 11.75C163.65 11.86 163.12 11.91 162.59 11.89C162.07 11.87 161.6 11.77 161.19 11.59C160.78 11.4 160.47 11.11 160.26 10.71C160.07 10.35 159.97 9.99 159.95 9.62C159.94 9.25 159.94 8.82 159.94 8.35L159.94 4.46L158.28 4.46L158.28 3.11L159.94 3.11L159.94 0.71L161.62 0.71L161.62 3.11L164.19 3.11L164.19 4.46L161.62 4.46L161.62 8.27C161.62 8.62 161.62 8.92 161.63 9.18C161.64 9.43 161.69 9.65 161.79 9.83Q161.9 10.01 162.05 10.13Q162.31 10.34 162.71 10.39C163.13 10.44 163.62 10.42 164.19 10.34ZM7.06 13.35Q6.53 13.43 5.99 13.43Q4.68 13.43 3.59 12.99C2.86 12.71 2.22 12.3 1.68 11.78C1.14 11.26 0.73 10.64 0.43 9.94Q-2.93e-5 8.87 -2.93e-5 7.62Q-2.94e-5 5.63 0.79 4.25Q1.31 3.36 2.06 2.74Q2.47 2.41 2.95 2.15Q3.21 2.02 3.48 1.91Q4.62 1.43 5.96 1.43Q7.48 1.43 8.63 1.91C9.39 2.22 10.02 2.64 10.53 3.19Q10.94 3.62 11.23 4.11Q11.49 4.55 11.66 5.03C11.9 5.72 12.02 6.44 12 7.19C11.97 8.23 11.75 9.02 11.35 9.58C10.94 10.13 10.31 10.4 9.46 10.4C9.09 10.4 8.73 10.33 8.4 10.19C8.08 10.05 7.82 9.84 7.63 9.57C7.39 9.84 7.11 10.03 6.79 10.15Q6.54 10.23 6.27 10.27Q6.05 10.31 5.83 10.31Q5.07 10.31 4.47 9.99Q4.43 9.98 4.39 9.95C3.98 9.72 3.66 9.39 3.43 8.98C3.2 8.56 3.08 8.07 3.08 7.51Q3.08 6.65 3.45 6.03C3.7 5.61 4.03 5.28 4.44 5.06C4.86 4.83 5.33 4.71 5.85 4.71Q6.25 4.71 6.7 4.85C7 4.94 7.26 5.06 7.48 5.23L7.48 4.94L8.55 4.94L8.53 7.81Q8.53 8.59 8.91 8.88Q9.13 9.05 9.48 9.05Q9.87 9.05 10.09 8.86Q10.24 8.74 10.32 8.54C10.47 8.2 10.54 7.76 10.56 7.23C10.57 6.41 10.45 5.71 10.19 5.15C9.93 4.58 9.57 4.12 9.12 3.77Q8.73 3.47 8.3 3.26Q7.99 3.11 7.66 3.02C7.13 2.86 6.59 2.78 6.07 2.78Q4.58 2.78 3.53 3.4Q2.99 3.72 2.58 4.16Q2.2 4.58 1.94 5.1C1.58 5.82 1.41 6.65 1.43 7.58C1.45 8.5 1.66 9.3 2.05 9.98Q2.36 10.49 2.77 10.89Q3.18 11.27 3.68 11.54Q4.72 12.09 6.06 12.09Q7.1 12.09 7.98 11.72Q8.09 11.67 8.19 11.62L8.65 12.87C8.24 13.06 7.81 13.2 7.35 13.29Q7.21 13.32 7.06 13.35ZM181.45 10.09C181.8 10.29 182.19 10.39 182.62 10.39C183.05 10.39 183.44 10.29 183.79 10.09C184.14 9.88 184.41 9.6 184.62 9.25C184.83 8.9 184.93 8.51 184.93 8.08L184.93 3.89C184.93 3.46 184.83 3.08 184.62 2.73C184.41 2.38 184.14 2.1 183.79 1.9C183.44 1.69 183.05 1.59 182.62 1.59C182.19 1.59 181.8 1.69 181.45 1.9C181.1 2.1 180.82 2.38 180.61 2.73Q180.52 2.88 180.46 3.03Q180.31 3.43 180.31 3.89L180.31 8.08C180.31 8.51 180.41 8.9 180.61 9.25C180.82 9.6 181.1 9.88 181.45 10.09ZM35.28 11.42C34.65 11.8 33.9 11.99 33.04 11.99C32.18 11.99 31.43 11.8 30.79 11.41C30.16 11.02 29.67 10.48 29.33 9.79C28.98 9.11 28.81 8.32 28.81 7.43Q28.81 6.07 29.34 5.05C29.69 4.37 30.18 3.83 30.82 3.45C31.45 3.07 32.19 2.87 33.04 2.87Q34.3 2.87 35.23 3.42Q35.26 3.44 35.29 3.46C35.92 3.84 36.41 4.38 36.76 5.07C37.11 5.75 37.28 6.54 37.28 7.43C37.28 8.33 37.1 9.12 36.75 9.81C36.41 10.49 35.91 11.03 35.28 11.42ZM40.71 15.59L39.03 15.59L39.03 3.11L40.52 3.11L40.52 3.89Q40.65 3.75 40.8 3.64Q41.16 3.34 41.62 3.15C42.05 2.97 42.53 2.87 43.06 2.87C43.87 2.87 44.57 3.07 45.16 3.47C45.75 3.87 46.21 4.41 46.53 5.1Q47.01 6.12 47.01 7.43Q47.01 8.72 46.53 9.75C46.21 10.44 45.76 10.99 45.17 11.39C44.59 11.79 43.9 11.99 43.09 11.99C42.6 11.99 42.16 11.92 41.76 11.77C41.36 11.63 41.01 11.42 40.71 11.15L40.71 15.59ZM72.42 11.77C72.03 11.92 71.59 11.99 71.1 11.99C70.3 11.99 69.6 11.79 69.02 11.39C68.43 10.99 67.98 10.44 67.66 9.75Q67.18 8.72 67.18 7.43C67.18 6.56 67.34 5.78 67.66 5.1C67.98 4.41 68.44 3.87 69.02 3.47Q69.15 3.39 69.29 3.31Q70.09 2.87 71.13 2.87C71.66 2.87 72.14 2.97 72.57 3.15C72.99 3.32 73.36 3.57 73.67 3.89L73.67 3.11L75.15 3.11L75.15 11.99C75.15 12.22 75.14 12.43 75.13 12.64C75.11 12.86 75.08 13.06 75.04 13.27C74.86 14.14 74.43 14.79 73.75 15.2Q72.74 15.83 71.22 15.83C70.53 15.83 69.87 15.67 69.26 15.35C68.64 15.03 68.15 14.56 67.8 13.95L69.34 13.16C69.53 13.53 69.8 13.8 70.14 13.97C70.49 14.14 70.86 14.23 71.24 14.23C71.95 14.23 72.51 14.03 72.9 13.65C73.29 13.27 73.48 12.71 73.47 11.97L73.47 11.15Q73.37 11.24 73.26 11.32Q72.88 11.6 72.42 11.77ZM125.43 11.26C124.81 11.74 123.95 11.99 122.86 11.99C121.81 11.99 120.95 11.75 120.29 11.29C119.63 10.83 119.22 10.17 119.07 9.33L120.79 9.07C120.89 9.52 121.14 9.87 121.52 10.13C121.91 10.39 122.39 10.51 122.97 10.51C123.49 10.51 123.9 10.41 124.19 10.19C124.49 9.98 124.64 9.69 124.64 9.31C124.64 9.1 124.59 8.92 124.48 8.79C124.38 8.65 124.16 8.52 123.83 8.39C123.5 8.27 123 8.12 122.32 7.94C121.58 7.74 120.99 7.53 120.55 7.31C120.12 7.1 119.81 6.84 119.63 6.55C119.44 6.25 119.35 5.89 119.35 5.47C119.35 4.68 119.66 4.06 120.27 3.59C120.89 3.11 121.7 2.87 122.71 2.87C123.71 2.87 124.53 3.11 125.19 3.57Q125.73 3.95 126.02 4.47Q126.25 4.89 126.31 5.41L124.6 5.72C124.54 5.31 124.35 4.99 124.02 4.75C123.69 4.5 123.26 4.37 122.73 4.35C122.22 4.33 121.81 4.41 121.5 4.6C121.18 4.79 121.03 5.05 121.03 5.38C121.03 5.57 121.09 5.73 121.21 5.87C121.33 5.99 121.56 6.12 121.91 6.25Q122.43 6.43 123.44 6.69C124.17 6.88 124.74 7.09 125.17 7.31C125.6 7.54 125.9 7.81 126.08 8.11C126.27 8.42 126.36 8.8 126.36 9.25C126.36 10.1 126.05 10.77 125.43 11.26ZM146.26 11.36C145.58 11.78 144.82 11.99 143.98 11.99C143.12 11.99 142.37 11.81 141.72 11.43C141.07 11.06 140.57 10.53 140.2 9.86Q139.67 8.84 139.67 7.51C139.67 6.56 139.84 5.74 140.2 5.05C140.55 4.36 141.05 3.82 141.68 3.44Q141.74 3.41 141.8 3.38Q142.71 2.87 143.9 2.87C144.78 2.87 145.53 3.08 146.15 3.49Q146.38 3.64 146.58 3.82Q147.19 4.38 147.53 5.23Q147.99 6.35 147.9 7.91L141.46 7.91C141.53 8.71 141.77 9.33 142.19 9.76C142.6 10.2 143.17 10.42 143.9 10.42C144.96 10.42 145.71 9.96 146.15 9.04L147.79 9.56C147.45 10.34 146.94 10.94 146.26 11.36ZM155.81 11.36C155.12 11.78 154.36 11.99 153.53 11.99C152.67 11.99 151.91 11.81 151.26 11.43C150.62 11.06 150.11 10.53 149.75 9.86Q149.21 8.84 149.21 7.51C149.21 6.56 149.39 5.74 149.74 5.05C150.1 4.36 150.6 3.82 151.23 3.44Q151.29 3.41 151.35 3.38Q152.26 2.87 153.45 2.87C154.33 2.87 155.08 3.08 155.69 3.49Q155.92 3.64 156.12 3.82Q156.74 4.38 157.08 5.23Q157.53 6.35 157.45 7.91L151.01 7.91C151.08 8.71 151.32 9.33 151.73 9.76C152.15 10.2 152.72 10.42 153.45 10.42C154.51 10.42 155.26 9.96 155.69 9.04L157.33 9.56C157 10.34 156.49 10.94 155.81 11.36ZM111.4 11.75L109.7 11.75L109.7 3.11L111.2 3.11L111.2 4.15C111.51 3.75 111.91 3.44 112.39 3.22C112.88 2.99 113.43 2.88 114.05 2.88Q114.95 2.88 115.56 3.17C115.96 3.36 116.29 3.62 116.54 3.93C116.8 4.24 116.99 4.58 117.13 4.95C117.26 5.31 117.35 5.67 117.4 6.03C117.45 6.38 117.47 6.69 117.47 6.95L117.47 11.75L115.77 11.75L115.77 7.51C115.77 7.17 115.75 6.83 115.69 6.47C115.63 6.12 115.53 5.79 115.37 5.48C115.22 5.18 115 4.93 114.71 4.75C114.42 4.56 114.05 4.47 113.59 4.47Q113.15 4.47 112.76 4.61Q112.63 4.67 112.49 4.74C112.16 4.92 111.9 5.22 111.69 5.63C111.5 6.03 111.4 6.58 111.4 7.26L111.4 11.75ZM58.93 11.75L57.24 11.75L57.24 3.11L58.73 3.11L58.73 4.49Q59.05 3.92 59.53 3.6Q59.58 3.57 59.63 3.53Q60.08 3.23 60.67 3.12C61.1 3.04 61.52 3.04 61.91 3.11L61.91 4.68C61.63 4.61 61.32 4.59 60.97 4.62C60.62 4.65 60.31 4.76 60.02 4.95C59.61 5.21 59.33 5.55 59.17 5.99C59.01 6.42 58.93 6.89 58.93 7.39L58.93 11.75ZM131 11.75L129.66 11.75L127.02 3.11L128.67 3.11L130.48 9.04L132.31 3.11L133.75 3.11L135.57 9.04L137.38 3.11L139.03 3.11L136.39 11.75L135.04 11.75L133.03 5.5L131 11.75ZM51.22 15.59L49.63 15.59L51.05 11.71L47.56 3.11L49.3 3.11L51.85 9.61L54.29 3.11L55.99 3.11L51.22 15.59ZM65.26 11.75L63.59 11.75L63.59 3.11L65.26 3.11L65.26 11.75ZM107.31 11.75L105.64 11.75L105.64 3.11L107.31 3.11L107.31 11.75ZM145.31 4.75Q144.78 4.35 143.96 4.35Q142.99 4.35 142.4 4.83Q142.33 4.88 142.28 4.93C141.87 5.31 141.61 5.87 141.5 6.6L146.19 6.6Q146.03 5.3 145.31 4.75ZM154.86 4.75Q154.33 4.35 153.51 4.35Q152.54 4.35 151.94 4.83Q151.88 4.88 151.82 4.93C151.41 5.31 151.15 5.87 151.05 6.6L155.73 6.6Q155.58 5.3 154.86 4.75ZM41.07 9.63C41.44 10.2 42.04 10.48 42.86 10.48C43.4 10.48 43.84 10.35 44.19 10.07C44.54 9.8 44.8 9.44 44.97 8.98C45.14 8.51 45.23 8 45.23 7.43C45.23 6.86 45.14 6.35 44.97 5.89Q44.77 5.36 44.4 5Q44.3 4.89 44.17 4.79C43.82 4.52 43.36 4.39 42.81 4.39Q42.01 4.39 41.5 4.77Q41.25 4.95 41.07 5.23C40.7 5.8 40.52 6.53 40.52 7.43C40.52 8.32 40.7 9.06 41.07 9.63ZM70 10.07C70.35 10.35 70.79 10.48 71.33 10.48Q72.2 10.48 72.74 10.05Q72.96 9.88 73.12 9.63Q73.67 8.77 73.67 7.43Q73.67 6.08 73.12 5.23C72.75 4.67 72.17 4.39 71.38 4.39C70.83 4.39 70.37 4.52 70.02 4.79C69.66 5.07 69.39 5.43 69.22 5.89C69.04 6.35 68.96 6.86 68.96 7.43C68.96 8 69.04 8.51 69.22 8.98C69.39 9.44 69.65 9.8 70 10.07ZM31.21 9.61C31.62 10.15 32.23 10.42 33.04 10.42C33.87 10.42 34.48 10.14 34.89 9.59C35.3 9.03 35.5 8.31 35.5 7.43C35.5 6.52 35.3 5.8 34.88 5.26C34.47 4.72 33.86 4.45 33.04 4.45Q32.12 4.45 31.55 4.9Q31.34 5.06 31.18 5.28C30.78 5.83 30.58 6.55 30.58 7.43Q30.58 8.79 31.21 9.61ZM4.88 8.57C5.13 8.82 5.47 8.95 5.92 8.95Q6.34 8.95 6.66 8.77Q6.77 8.7 6.87 8.62C7.13 8.4 7.26 8.03 7.26 7.51Q7.26 6.79 6.91 6.43C6.69 6.19 6.37 6.07 5.96 6.07Q5.29 6.07 4.93 6.4Q4.9 6.43 4.87 6.46C4.63 6.71 4.51 7.06 4.51 7.51C4.51 7.96 4.64 8.31 4.88 8.57Z" fill="#939191" fill-opacity="1.000000" fill-rule="evenodd"/>
</svg>
